<svg version="1.1" xmlns="http://www.w3.org/2000/svg" viewBox="0 0 3070.9609375 1621.5759930869062" width="9212.8828125" height="4864.727979260719">
  <!-- svg-source:excalidraw -->
  
  <defs>
    <style class="style-fonts">
      @font-face {
        font-family: "Virgil";
        src: url("https://excalidraw.com/Virgil.woff2");
      }
      @font-face {
        font-family: "Cascadia";
        src: url("https://excalidraw.com/Cascadia.woff2");
      }
    </style>
    
  </defs>
  <rect x="0" y="0" width="3070.9609375" height="1621.5759930869062" fill="#ffffff"></rect><g stroke-linecap="round" transform="translate(10 437.182832459217) rotate(0 166 85.5)"><path d="M196.76 2.42 C213.82 2.72, 231.71 7.62, 247.43 12.04 C263.15 16.47, 279.03 22.25, 291.09 28.97 C303.14 35.68, 313.16 43.86, 319.77 52.31 C326.39 60.75, 329.58 70.4, 330.76 79.62 C331.95 88.85, 331.39 98.58, 326.9 107.68 C322.4 116.77, 313.97 126.36, 303.78 134.2 C293.58 142.05, 280.27 149.38, 265.73 154.73 C251.2 160.09, 233.67 163.73, 216.57 166.33 C199.48 168.93, 181.28 170.4, 163.18 170.34 C145.07 170.28, 124.78 168.89, 107.96 165.97 C91.14 163.05, 76.12 158.76, 62.25 152.82 C48.39 146.88, 34.3 138.46, 24.74 130.32 C15.18 122.17, 8.75 112.92, 4.89 103.97 C1.04 95.02, -0.08 85.85, 1.59 76.63 C3.26 67.41, 7.32 56.91, 14.9 48.64 C22.49 40.37, 34.44 33.52, 47.1 26.98 C59.75 20.44, 74.92 13.63, 90.82 9.41 C106.71 5.18, 122.47 2.65, 142.49 1.65 C162.5 0.65, 197.32 2.48, 210.89 3.39 C224.45 4.29, 224.53 5.61, 223.88 7.08 M234.74 6.52 C251.12 8.82, 265.95 16.64, 278.9 23.2 C291.86 29.77, 304.09 37.44, 312.46 45.92 C320.82 54.41, 326.41 64.85, 329.1 74.12 C331.78 83.39, 331.73 92.47, 328.56 101.54 C325.4 110.61, 318.84 120.64, 310.09 128.56 C301.33 136.48, 289.23 143.35, 276.05 149.06 C262.86 154.78, 247.67 159.13, 230.97 162.85 C214.27 166.57, 194.04 170.35, 175.84 171.37 C157.63 172.4, 139.05 171.46, 121.74 169.01 C104.42 166.57, 86.82 162.21, 71.94 156.68 C57.07 151.14, 42.93 143.12, 32.48 135.81 C22.04 128.51, 14.54 121.48, 9.26 112.83 C3.97 104.18, 0.55 93.17, 0.77 83.91 C0.98 74.65, 4.47 65.94, 10.55 57.27 C16.63 48.59, 25.92 39.13, 37.24 31.85 C48.55 24.58, 63.44 18.39, 78.42 13.61 C93.41 8.83, 109.87 5.41, 127.16 3.19 C144.44 0.98, 164.07 -0.26, 182.12 0.32 C200.16 0.9, 226.9 5.02, 235.43 6.68 C243.96 8.34, 234.69 9.05, 233.32 10.28" stroke="#000000" stroke-width="1" fill="none"></path></g><g transform="translate(123.38589932303307 501.12520266776846) rotate(0 52.734375 21.600000000000364)"><text x="52.734375" y="0" font-family="Cascadia, Segoe UI Emoji" font-size="36px" fill="#000000" text-anchor="middle" style="white-space: pre;" direction="ltr" dominant-baseline="text-before-edge">caisy</text></g><g transform="translate(966.9396877007697 10) rotate(0 403.212890625 165.1560084447574)"><text x="0" y="0" font-family="Cascadia, Segoe UI Emoji" font-size="275.26001407459523px" fill="#000000" text-anchor="start" style="white-space: pre;" direction="ltr" dominant-baseline="text-before-edge">CPORT</text></g><g stroke-linecap="round" transform="translate(23.45703125 770.600801209217) rotate(0 154 85.5)"><path d="M225.35 9.62 C241.44 12.45, 255.99 20.03, 267.63 27.09 C279.26 34.15, 288.32 42.99, 295.16 51.98 C302 60.96, 307.57 71.09, 308.66 81 C309.75 90.91, 306.98 101.93, 301.7 111.44 C296.41 120.94, 287.71 130.46, 276.93 138.03 C266.15 145.6, 251.8 151.83, 237.04 156.87 C222.28 161.91, 205.64 166, 188.37 168.27 C171.1 170.53, 150.79 171.46, 133.43 170.48 C116.07 169.5, 99.71 166.98, 84.19 162.4 C68.68 157.81, 52.28 150.44, 40.33 142.98 C28.39 135.52, 19.1 126.57, 12.53 117.64 C5.95 108.72, 1.89 99.18, 0.88 89.43 C-0.12 79.67, 1.26 68.31, 6.52 59.13 C11.78 49.94, 21.58 41.94, 32.44 34.33 C43.3 26.72, 56.97 18.7, 71.68 13.45 C86.38 8.21, 103.63 4.93, 120.66 2.84 C137.68 0.76, 154.09 -0.92, 173.82 0.93 C193.55 2.79, 226.34 10.59, 239.04 13.99 C251.75 17.39, 251.41 20.15, 250.03 21.34 M177.54 0.85 C194.31 1.23, 213.3 5.86, 228.66 10.92 C244.02 15.97, 258.28 23.66, 269.72 31.17 C281.16 38.68, 291.06 46.89, 297.32 55.98 C303.58 65.07, 307.04 76.09, 307.29 85.69 C307.54 95.29, 304.4 104.8, 298.81 113.55 C293.22 122.3, 285.02 130.52, 273.76 138.2 C262.5 145.87, 246.62 154.21, 231.25 159.59 C215.87 164.97, 198.72 168.7, 181.5 170.47 C164.28 172.24, 145.24 172.12, 127.93 170.19 C110.62 168.26, 92.57 163.57, 77.64 158.88 C62.7 154.19, 49.46 149.29, 38.3 142.04 C27.14 134.8, 16.95 124.55, 10.69 115.42 C4.43 106.29, 0.96 97, 0.73 87.29 C0.51 77.57, 3.47 66.38, 9.34 57.12 C15.21 47.86, 25.02 39.11, 35.94 31.73 C46.86 24.35, 59.96 17.92, 74.86 12.87 C89.75 7.81, 107.91 3.53, 125.33 1.4 C142.75 -0.73, 170.56 -0.32, 179.36 0.08 C188.15 0.48, 178.76 2.47, 178.12 3.81" stroke="#000000" stroke-width="1" fill="none"></path></g><g transform="translate(103.73446194727171 834.5431714177685) rotate(0 73.828125 21.600000000000364)"><text x="73.828125" y="0" font-family="Cascadia, Segoe UI Emoji" font-size="36px" fill="#000000" text-anchor="middle" style="white-space: pre;" direction="ltr" dominant-baseline="text-before-edge">prsimic</text></g><g stroke-linecap="round" transform="translate(23.056640625 1055.952363709217) rotate(0 165.5 85.5)"><path d="M172.42 -0.44 C189.61 -1.37, 210.51 1.97, 227.42 5.56 C244.33 9.15, 260.35 14.88, 273.89 21.1 C287.42 27.32, 299.67 35.1, 308.61 42.89 C317.55 50.69, 323.94 59.04, 327.52 67.88 C331.11 76.72, 332.58 86.64, 330.12 95.94 C327.66 105.24, 320.66 115.14, 312.75 123.69 C304.84 132.24, 295.31 140.85, 282.65 147.24 C269.99 153.63, 252.98 158.32, 236.8 162.04 C220.62 165.76, 203.17 168.4, 185.58 169.56 C168 170.71, 148.96 170.95, 131.27 168.98 C113.59 167.01, 94.77 162.4, 79.48 157.74 C64.18 153.08, 50.78 147.96, 39.51 141.01 C28.23 134.05, 18.31 124.63, 11.83 116 C5.35 107.38, 1.35 98.46, 0.61 89.27 C-0.13 80.08, 2.16 69.82, 7.41 60.85 C12.66 51.88, 21.51 42.82, 32.11 35.43 C42.7 28.03, 56.33 21.81, 70.99 16.48 C85.65 11.15, 99.14 5.97, 120.09 3.44 C141.04 0.92, 180.55 1.04, 196.68 1.35 C212.82 1.65, 217.5 3.92, 216.9 5.27 M163.55 0.7 C180.6 -0.74, 200.37 2.88, 217.39 5.66 C234.41 8.45, 251.23 12.26, 265.66 17.44 C280.09 22.62, 294.21 28.91, 303.97 36.75 C313.74 44.59, 320.01 55.12, 324.26 64.47 C328.5 73.83, 330.76 83.71, 329.44 92.89 C328.12 102.08, 323.42 111.44, 316.37 119.58 C309.31 127.73, 298.75 134.83, 287.08 141.77 C275.42 148.7, 261.79 156.58, 246.39 161.19 C230.99 165.8, 212.39 167.85, 194.69 169.43 C176.98 171.01, 157.88 172.1, 140.18 170.68 C122.48 169.25, 104.23 165.28, 88.48 160.87 C72.73 156.47, 58.1 150.85, 45.68 144.25 C33.25 137.66, 21.42 129.83, 13.91 121.3 C6.39 112.78, 2.03 102.63, 0.59 93.1 C-0.86 83.56, 1 72.88, 5.24 64.07 C9.48 55.27, 16.56 48.11, 26.02 40.26 C35.48 32.41, 47.83 23, 62.02 16.98 C76.2 10.95, 94.18 7.13, 111.15 4.12 C128.13 1.11, 154.79 -0.84, 163.86 -1.09 C172.92 -1.34, 165.26 0.76, 165.53 2.6" stroke="#000000" stroke-width="1" fill="none"></path></g><g transform="translate(83.0617183386264 1119.8947339177685) rotate(0 105.46875 21.600000000000364)"><text x="105.46875" y="0" font-family="Cascadia, Segoe UI Emoji" font-size="36px" fill="#000000" text-anchor="middle" style="white-space: pre;" direction="ltr" dominant-baseline="text-before-edge">contentful</text></g><g stroke-linecap="round" transform="translate(33.974609375 1335.659394959217) rotate(0 154 85.5)"><path d="M114.16 3.52 C129.55 -0.01, 149.83 0.38, 167.19 1.01 C184.55 1.64, 202.36 3.42, 218.32 7.28 C234.28 11.13, 250.61 17.15, 262.94 24.14 C275.27 31.12, 284.75 40.13, 292.29 49.2 C299.83 58.28, 306.49 69, 308.18 78.6 C309.88 88.19, 306.95 97.64, 302.44 106.77 C297.93 115.9, 290.94 125.31, 281.14 133.39 C271.33 141.46, 258.11 149.62, 243.59 155.23 C229.08 160.84, 210.96 164.36, 194.05 167.04 C177.15 169.73, 159.46 172.01, 142.18 171.35 C124.91 170.68, 106.41 167.11, 90.39 163.05 C74.38 158.99, 58.66 153.78, 46.09 146.97 C33.51 140.17, 22.41 131.15, 14.96 122.21 C7.5 113.27, 2.87 102.95, 1.36 93.35 C-0.14 83.75, 1.43 74.02, 5.92 64.59 C10.41 55.17, 18.4 44.98, 28.32 36.8 C38.24 28.62, 50.86 21.38, 65.45 15.53 C80.03 9.67, 106.68 3.69, 115.82 1.65 C124.96 -0.38, 119.52 1.92, 120.28 3.33 M223.71 10.69 C239.68 13.58, 254.33 20.5, 266.47 27.21 C278.62 33.91, 289.9 41.8, 296.56 50.92 C303.22 60.03, 305.87 71.76, 306.44 81.9 C307.02 92.04, 305.18 102.48, 300.02 111.75 C294.86 121.02, 286.08 130.11, 275.48 137.51 C264.88 144.92, 250.8 150.84, 236.41 156.19 C222.03 161.55, 205.99 167.36, 189.16 169.67 C172.33 171.97, 152.91 171.25, 135.43 170.02 C117.96 168.79, 99.94 166.71, 84.32 162.28 C68.69 157.86, 53.54 150.68, 41.68 143.47 C29.81 136.25, 20.14 127.83, 13.14 119.01 C6.14 110.19, 0.72 100.37, -0.34 90.55 C-1.39 80.74, 1.45 69.75, 6.81 60.12 C12.17 50.49, 21.23 40.34, 31.81 32.75 C42.39 25.17, 55.79 19.97, 70.32 14.62 C84.86 9.28, 101.76 3.13, 119.02 0.69 C136.27 -1.76, 156.36 -1.33, 173.85 -0.05 C191.34 1.23, 215.58 6.38, 223.98 8.37 C232.37 10.35, 225.14 10.18, 224.22 11.87" stroke="#000000" stroke-width="1" fill="none"></path></g><g transform="translate(124.79891507227171 1399.6017651677685) rotate(0 63.28125 21.600000000000364)"><text x="63.28125" y="0" font-family="Cascadia, Segoe UI Emoji" font-size="36px" fill="#000000" text-anchor="middle" style="white-space: pre;" direction="ltr" dominant-baseline="text-before-edge">strapi</text></g><g transform="translate(1053.8537502007698 700.5078125) rotate(0 347.859375 89.06201688951478)"><text x="347.859375" y="0" font-family="Cascadia, Segoe UI Emoji" font-size="74.2183474079288px" fill="#000000" text-anchor="middle" style="white-space: pre;" direction="ltr" dominant-baseline="text-before-edge">CPORT </text><text x="347.859375" y="89.06201688951457" font-family="Cascadia, Segoe UI Emoji" font-size="74.2183474079288px" fill="#000000" text-anchor="middle" style="white-space: pre;" direction="ltr" dominant-baseline="text-before-edge">Universal Format</text></g><g stroke-linecap="round" transform="translate(1262.6770961308002 1002.1625409384687) rotate(0 124.3359375 68.291015625)"><path d="M32 0 M32 0 C72.73 2.71, 116.43 0.85, 216.67 0 M32 0 C75.39 -0.23, 118.94 1.39, 216.67 0 M216.67 0 C237.95 -1.44, 247.17 9.9, 248.67 32 M216.67 0 C240.23 0.34, 249.56 12.59, 248.67 32 M248.67 32 C249.87 59.58, 248.93 88.83, 248.67 104.58 M248.67 32 C249.3 51.24, 248.94 69.6, 248.67 104.58 M248.67 104.58 C249.31 126.4, 238.51 134.77, 216.67 136.58 M248.67 104.58 C249.69 124.19, 236.77 138.12, 216.67 136.58 M216.67 136.58 C160 137.92, 103.09 138.1, 32 136.58 M216.67 136.58 C157.46 136.64, 99.72 137.16, 32 136.58 M32 136.58 C8.94 135.96, -1.18 124.74, 0 104.58 M32 136.58 C10.06 135.07, 1.64 126.38, 0 104.58 M0 104.58 C0.4 80.04, -0.71 55.65, 0 32 M0 104.58 C0.13 85.7, -0.46 66.78, 0 32 M0 32 C0.59 12.25, 12.42 -1.23, 32 0 M0 32 C0.43 11.73, 11.98 -1.6, 32 0" stroke="#000000" stroke-width="1" fill="none"></path></g><g transform="translate(1323.7317836308002 1048.8535565634702) rotate(0 63.28125 21.600000000000364)"><text x="63.28125" y="0" font-family="Cascadia, Segoe UI Emoji" font-size="36px" fill="#000000" text-anchor="middle" style="white-space: pre;" direction="ltr" dominant-baseline="text-before-edge">Schema</text></g><g stroke-linecap="round" transform="translate(1262.7649867558002 1180.2875409384687) rotate(0 124.3359375 68.291015625)"><path d="M32 0 M32 0 C74.26 1.83, 122.2 1.93, 216.67 0 M32 0 C86 -0.93, 138.31 -0.59, 216.67 0 M216.67 0 C239.72 -0.26, 247.24 12.56, 248.67 32 M216.67 0 C237.32 -2.23, 246.84 10.67, 248.67 32 M248.67 32 C247.54 57.11, 247.51 84.92, 248.67 104.58 M248.67 32 C248.58 49, 247.89 64.8, 248.67 104.58 M248.67 104.58 C249.49 127.72, 236.92 135.89, 216.67 136.58 M248.67 104.58 C249.69 128.07, 237.38 135.01, 216.67 136.58 M216.67 136.58 C149.69 137.44, 78.61 137.84, 32 136.58 M216.67 136.58 C154.17 138.24, 91.85 136.72, 32 136.58 M32 136.58 C12.52 137.3, -0.79 127.65, 0 104.58 M32 136.58 C8.48 137.82, 1.55 124.38, 0 104.58 M0 104.58 C-0.44 89.28, -0.17 69.73, 0 32 M0 104.58 C-0.16 83.93, -0.27 62.91, 0 32 M0 32 C-0.15 11.47, 10.5 -1.17, 32 0 M0 32 C2.24 11.19, 11.47 -0.2, 32 0" stroke="#000000" stroke-width="1" fill="none"></path></g><g transform="translate(1313.2727992558002 1226.9785565634702) rotate(0 73.828125 21.600000000000364)"><text x="73.828125" y="0" font-family="Cascadia, Segoe UI Emoji" font-size="36px" fill="#000000" text-anchor="middle" style="white-space: pre;" direction="ltr" dominant-baseline="text-before-edge">Content</text></g><g stroke-linecap="round" transform="translate(1262.6575648808002 1371.3129315634687) rotate(0 124.3359375 68.291015625)"><path d="M32 0 M32 0 C89 -1.22, 146.51 -0.72, 216.67 0 M32 0 C93.61 0.03, 155.56 0.19, 216.67 0 M216.67 0 C236.09 1.63, 250.11 12.47, 248.67 32 M216.67 0 C237.39 -2.14, 248.34 12.4, 248.67 32 M248.67 32 C247.24 58.14, 250.57 86.4, 248.67 104.58 M248.67 32 C248.15 60.14, 248.13 87.86, 248.67 104.58 M248.67 104.58 C249.76 125.33, 239.05 138.4, 216.67 136.58 M248.67 104.58 C249.13 126.11, 236.26 135.6, 216.67 136.58 M216.67 136.58 C154.46 135.28, 92.78 135.1, 32 136.58 M216.67 136.58 C148.55 137.64, 78.8 136.73, 32 136.58 M32 136.58 C11.6 137.24, 0.13 126.86, 0 104.58 M32 136.58 C8.9 134.84, -1.71 125.12, 0 104.58 M0 104.58 C0.76 79.25, -1.11 51.74, 0 32 M0 104.58 C0.75 80.86, -0.26 55.6, 0 32 M0 32 C-0.16 11.27, 11.85 1.01, 32 0 M0 32 C0.26 9.15, 10.93 -1.66, 32 0" stroke="#000000" stroke-width="1" fill="none"></path></g><g transform="translate(1323.7122523808002 1418.0039471884702) rotate(0 63.28125 21.600000000000364)"><text x="63.28125" y="0" font-family="Cascadia, Segoe UI Emoji" font-size="36px" fill="#000000" text-anchor="middle" style="white-space: pre;" direction="ltr" dominant-baseline="text-before-edge">Assets</text></g><g stroke-linecap="round" transform="translate(998.2044398808001 541.0877118369062) rotate(0 408.9404296875 535.244140625)"><path d="M32 0 M32 0 C314.98 0.24, 597.4 0.7, 785.88 0 M32 0 C229.53 -0.18, 426.84 -0.18, 785.88 0 M785.88 0 C806.32 -0.83, 819.42 10.34, 817.88 32 M785.88 0 C807.06 1.81, 820.08 11.3, 817.88 32 M817.88 32 C819.53 233.08, 818.31 435.64, 817.88 1038.49 M817.88 32 C815.97 349.9, 816.32 667.15, 817.88 1038.49 M817.88 1038.49 C816.65 1060.55, 808.47 1070.06, 785.88 1070.49 M817.88 1038.49 C819.74 1059.87, 806.19 1072.75, 785.88 1070.49 M785.88 1070.49 C491.06 1069.47, 198.11 1070.03, 32 1070.49 M785.88 1070.49 C531.71 1070.88, 276.63 1071.21, 32 1070.49 M32 1070.49 C11.42 1068.84, -0.81 1058.33, 0 1038.49 M32 1070.49 C11.11 1070.66, -1.8 1058.46, 0 1038.49 M0 1038.49 C-3.57 705.34, -2.91 372.98, 0 32 M0 1038.49 C-2.22 681.77, -1.71 325.36, 0 32 M0 32 C-1.77 11.22, 10.06 -1.05, 32 0 M0 32 C-1.27 10.09, 9.68 -1.08, 32 0" stroke="#000000" stroke-width="1" fill="none"></path></g><g stroke-linecap="round" transform="translate(2716.904296875 454.360566834217) rotate(0 166 85.5)"><path d="M146.8 0.71 C163.44 -1.84, 183.57 -0.53, 200.97 1.5 C218.37 3.52, 235.84 8.18, 251.2 12.88 C266.56 17.59, 281.61 22.63, 293.15 29.73 C304.69 36.83, 313.86 46.7, 320.43 55.46 C327.01 64.23, 331.68 73.13, 332.59 82.34 C333.49 91.56, 331.15 101.89, 325.85 110.76 C320.55 119.64, 311.32 128.13, 300.78 135.6 C290.24 143.07, 277.34 150.25, 262.62 155.6 C247.91 160.95, 229.7 165.24, 212.5 167.67 C195.3 170.1, 177.31 170.61, 159.43 170.18 C141.55 169.75, 122.08 168.28, 105.22 165.1 C88.36 161.92, 72.08 157.04, 58.29 151.1 C44.51 145.17, 31.71 137.5, 22.52 129.5 C13.34 121.51, 6.6 112.36, 3.17 103.13 C-0.27 93.9, -0.41 83.21, 1.91 74.12 C4.23 65.03, 9.22 56.88, 17.1 48.6 C24.99 40.31, 36.49 31.21, 49.22 24.42 C61.95 17.63, 76.57 11.74, 93.5 7.86 C110.42 3.98, 140.17 2.02, 150.78 1.13 C161.39 0.24, 156.79 1.3, 157.16 2.52 M145.73 -0.09 C162.76 -2.81, 183.85 -1.77, 201.52 0.37 C219.19 2.51, 236.37 7.97, 251.75 12.77 C267.13 17.57, 282.13 21.95, 293.8 29.16 C305.46 36.37, 315.47 47.43, 321.76 56.02 C328.06 64.62, 331.14 71.48, 331.54 80.72 C331.93 89.96, 329.16 102.44, 324.13 111.45 C319.11 120.47, 311.59 127.42, 301.4 134.8 C291.2 142.18, 277.61 150.35, 262.96 155.74 C248.31 161.14, 230.78 164.5, 213.51 167.18 C196.24 169.87, 177.21 172.43, 159.37 171.85 C141.53 171.26, 123.07 167.4, 106.47 163.68 C89.87 159.95, 73.49 155.08, 59.78 149.52 C46.07 143.97, 33.49 138.31, 24.2 130.33 C14.92 122.34, 7.89 111.09, 4.08 101.61 C0.26 92.14, -1.04 82.58, 1.31 73.47 C3.66 64.36, 10.09 55.04, 18.2 46.93 C26.31 38.83, 37.34 31.13, 49.96 24.85 C62.59 18.58, 78.01 13.36, 93.94 9.29 C109.87 5.22, 136.59 1.39, 145.53 0.44 C154.48 -0.5, 147.17 2.37, 147.6 3.63" stroke="#000000" stroke-width="1" fill="none"></path></g><g transform="translate(2830.2901961980333 518.3029370427685) rotate(0 52.734375 21.600000000000364)"><text x="52.734375" y="0" font-family="Cascadia, Segoe UI Emoji" font-size="36px" fill="#000000" text-anchor="middle" style="white-space: pre;" direction="ltr" dominant-baseline="text-before-edge">caisy</text></g><g stroke-linecap="round" transform="translate(2730.361328125 787.778535584217) rotate(0 154 85.5)"><path d="M219.97 8.71 C235.9 11.59, 250.87 19.18, 263.32 26.16 C275.77 33.15, 287.33 41.88, 294.66 50.6 C302 59.33, 306.18 68.89, 307.34 78.52 C308.5 88.14, 306.45 98.94, 301.63 108.37 C296.8 117.8, 288.42 127.23, 278.4 135.08 C268.39 142.92, 255.77 149.86, 241.53 155.44 C227.3 161.03, 210.12 165.95, 193 168.6 C175.87 171.24, 156.34 172.37, 138.79 171.31 C121.25 170.25, 103.68 166.63, 87.73 162.23 C71.77 157.83, 55.47 151.99, 43.07 144.91 C30.66 137.83, 20.49 128.44, 13.3 119.76 C6.11 111.07, 1.06 102.2, -0.07 92.79 C-1.19 83.38, 1.69 72.69, 6.55 63.32 C11.41 53.94, 18.95 44.57, 29.09 36.55 C39.22 28.54, 52.89 20.95, 67.36 15.22 C81.82 9.49, 98.79 4.69, 115.88 2.19 C132.97 -0.31, 150.54 -1.46, 169.9 0.2 C189.26 1.87, 219.97 9.29, 232.05 12.16 C244.12 15.03, 243.63 16.29, 242.35 17.43 M196.91 4.44 C213.71 5.57, 230.76 11.4, 244.95 16.82 C259.14 22.24, 272.34 28.86, 282.04 36.96 C291.74 45.06, 298.75 55.65, 303.13 65.41 C307.52 75.17, 310.32 85.84, 308.33 95.54 C306.35 105.24, 299.03 115.3, 291.23 123.62 C283.43 131.95, 273.76 138.82, 261.53 145.47 C249.3 152.13, 234.13 159.22, 217.86 163.57 C201.59 167.92, 181.75 170.96, 163.89 171.6 C146.04 172.24, 127.59 170.12, 110.72 167.41 C93.85 164.69, 76.86 160.75, 62.67 155.31 C48.47 149.87, 35.24 143.09, 25.55 134.76 C15.86 126.43, 8.68 115.1, 4.53 105.34 C0.37 95.57, -1.11 85.44, 0.62 76.17 C2.35 66.9, 7.42 58.24, 14.91 49.72 C22.4 41.21, 33.12 31.91, 45.56 25.09 C58 18.26, 73.28 12.94, 89.54 8.76 C105.81 4.57, 125.55 0.65, 143.17 -0.02 C160.79 -0.69, 186.79 4.06, 195.26 4.72 C203.73 5.39, 194.45 3.03, 193.98 4" stroke="#000000" stroke-width="1" fill="none"></path></g><g transform="translate(2810.638758822272 851.7209057927685) rotate(0 73.828125 21.600000000000364)"><text x="73.828125" y="0" font-family="Cascadia, Segoe UI Emoji" font-size="36px" fill="#000000" text-anchor="middle" style="white-space: pre;" direction="ltr" dominant-baseline="text-before-edge">prsimic</text></g><g stroke-linecap="round" transform="translate(2729.9609375 1073.130098084217) rotate(0 165.5 85.5)"><path d="M206.26 1.99 C223.51 2.86, 242 9.53, 257.06 14.78 C272.11 20.02, 285.64 26.38, 296.59 33.45 C307.54 40.52, 316.87 48.6, 322.77 57.2 C328.66 65.79, 332.04 75.63, 331.96 85.02 C331.88 94.41, 328.31 104.75, 322.29 113.53 C316.27 122.32, 306.96 130.53, 295.82 137.75 C284.67 144.97, 270.63 151.65, 255.42 156.86 C240.21 162.07, 221.82 166.65, 204.54 169.01 C187.26 171.36, 169.47 172.02, 151.74 170.99 C134 169.96, 114.46 166.78, 98.13 162.83 C81.81 158.88, 66.96 153.39, 53.81 147.3 C40.65 141.2, 27.9 134.15, 19.2 126.27 C10.5 118.4, 4.34 109.17, 1.62 100.05 C-1.09 90.93, -0.19 80.64, 2.9 71.54 C5.98 62.44, 11.65 53.63, 20.16 45.43 C28.66 37.22, 40.73 28.57, 53.92 22.3 C67.11 16.04, 82.88 11.39, 99.3 7.83 C115.72 4.26, 133.47 1.54, 152.45 0.93 C171.43 0.32, 202.02 3.09, 213.18 4.14 C224.35 5.19, 220.23 6, 219.43 7.25 M97.29 6.85 C112.04 2.37, 133.91 2.16, 151.81 1.21 C169.71 0.25, 187.24 -0.89, 204.67 1.11 C222.1 3.11, 241.37 7.79, 256.4 13.22 C271.44 18.65, 284.19 26.08, 294.88 33.69 C305.57 41.3, 314.51 50.22, 320.57 58.87 C326.63 67.52, 330.84 76.57, 331.23 85.57 C331.62 94.57, 328.91 104.38, 322.92 112.89 C316.94 121.39, 306.59 129.24, 295.32 136.59 C284.05 143.93, 270.04 151.86, 255.29 156.97 C240.54 162.08, 224.17 165.02, 206.83 167.22 C189.5 169.42, 168.93 170.8, 151.27 170.17 C133.62 169.55, 116.95 167.31, 100.91 163.48 C84.88 159.65, 68.61 153.32, 55.07 147.21 C41.54 141.1, 28.63 134.77, 19.69 126.81 C10.76 118.85, 4.65 108.61, 1.49 99.45 C-1.66 90.29, -2.47 80.67, 0.76 71.84 C3.99 63, 12.26 54.38, 20.89 46.44 C29.51 38.51, 39.58 30.49, 52.52 24.22 C65.46 17.95, 90.42 11.35, 98.51 8.82 C106.6 6.28, 99.86 7.85, 101.06 8.98" stroke="#000000" stroke-width="1" fill="none"></path></g><g transform="translate(2789.9660152136266 1137.0724682927685) rotate(0 105.46875 21.600000000000364)"><text x="105.46875" y="0" font-family="Cascadia, Segoe UI Emoji" font-size="36px" fill="#000000" text-anchor="middle" style="white-space: pre;" direction="ltr" dominant-baseline="text-before-edge">contentful</text></g><g stroke-linecap="round" transform="translate(2740.87890625 1352.837129334217) rotate(0 154 85.5)"><path d="M164.63 -0.51 C181.45 -0.94, 201.68 3.75, 217.89 8 C234.09 12.25, 249.5 18.18, 261.87 25 C274.24 31.82, 284.66 40.39, 292.09 48.9 C299.53 57.4, 304.59 66.27, 306.51 76 C308.42 85.73, 307.64 97.76, 303.59 107.27 C299.54 116.79, 292.28 125.29, 282.2 133.08 C272.12 140.88, 257.42 148.26, 243.11 154.04 C228.8 159.82, 213.15 164.84, 196.34 167.75 C179.53 170.66, 159.9 172.32, 142.24 171.5 C124.58 170.68, 106.35 167.09, 90.39 162.84 C74.44 158.58, 59.03 152.77, 46.49 145.96 C33.96 139.16, 22.75 130.81, 15.19 122.02 C7.62 113.23, 2.96 102.74, 1.08 93.22 C-0.8 83.69, -0.23 74.17, 3.91 64.85 C8.05 55.52, 15.97 45.44, 25.91 37.27 C35.86 29.1, 49.31 21.57, 63.57 15.83 C77.84 10.1, 91.65 5.32, 111.52 2.85 C131.39 0.39, 168.1 0.66, 182.81 1.04 C197.51 1.43, 199.98 3.58, 199.74 5.17 M214.04 6.78 C230.41 8.83, 244 15.75, 256.89 22.09 C269.79 28.42, 283.29 35.88, 291.43 44.8 C299.56 53.73, 303.71 65.92, 305.7 75.63 C307.68 85.35, 307.06 93.97, 303.34 103.09 C299.61 112.22, 292.79 121.85, 283.32 130.36 C273.86 138.88, 260.59 147.96, 246.54 154.17 C232.49 160.37, 215.78 164.64, 199.01 167.59 C182.25 170.54, 163.35 172.47, 145.96 171.86 C128.57 171.26, 110.45 167.92, 94.67 163.96 C78.89 160.01, 64.13 154.43, 51.28 148.14 C38.43 141.86, 26.14 134.78, 17.58 126.25 C9.02 117.72, 2.31 106.86, -0.07 96.95 C-2.44 87.05, -0.46 76.25, 3.35 66.81 C7.17 57.38, 13.56 48.31, 22.82 40.33 C32.09 32.35, 44.95 25.15, 58.92 18.94 C72.89 12.72, 89.87 6.17, 106.64 3.04 C123.41 -0.09, 141.65 -0.36, 159.51 0.15 C177.38 0.66, 205.14 4.78, 213.84 6.1 C222.55 7.42, 212.66 6.53, 211.75 8.07" stroke="#000000" stroke-width="1" fill="none"></path></g><g transform="translate(2831.703211947272 1416.7794995427685) rotate(0 63.28125 21.600000000000364)"><text x="63.28125" y="0" font-family="Cascadia, Segoe UI Emoji" font-size="36px" fill="#000000" text-anchor="middle" style="white-space: pre;" direction="ltr" dominant-baseline="text-before-edge">strapi</text></g><g stroke-linecap="round"><g transform="translate(343.7317836308001 530.8716473837812) rotate(0 326.7114138292241 237.4238577919732)"><path d="M-0.83 1.2 C107.67 80.19, 542.97 395.62, 651.98 474.07 M0.93 0.78 C109.72 79.46, 545.64 393.92, 654.26 472.57" stroke="#000000" stroke-width="1" fill="none"></path></g></g><mask></mask><g stroke-linecap="round"><g transform="translate(322.5403773808001 871.9653973837812) rotate(0 337.32043366543945 115.1466187125443)"><path d="M-1.15 0.07 C111.35 38.26, 563.18 191.69, 675.79 229.85 M0.45 -0.94 C112.78 37.36, 563.01 192.78, 675.16 231.23" stroke="#000000" stroke-width="1" fill="none"></path></g></g><mask></mask><g stroke-linecap="round"><g transform="translate(350.0110805058001 1140.9302411337812) rotate(0 325.42773094882256 8.562065073530903)"><path d="M-0.8 0.23 C107.23 3.12, 540.67 13.69, 649.27 16.62 M0.98 -0.7 C109.32 2.41, 543.41 15.09, 651.66 17.83" stroke="#000000" stroke-width="1" fill="none"></path></g></g><mask></mask><g stroke-linecap="round"><g transform="translate(344.2981898808001 1421.8677411337812) rotate(0 329.2036042841896 -103.93393096864202)"><path d="M0.68 -0.82 C110.43 -35.42, 549.38 -173.15, 658.83 -207.69 M-0.42 1.37 C109.2 -33.53, 548.2 -174, 658.26 -209.23" stroke="#000000" stroke-width="1" fill="none"></path></g></g><mask></mask><g transform="translate(517.6868617558001 1492.7368817587812) rotate(0 137.109375 21.600000000000364)"><text x="137.109375" y="0" font-family="Cascadia, Segoe UI Emoji" font-size="36px" fill="#000000" text-anchor="middle" style="white-space: pre;" direction="ltr" dominant-baseline="text-before-edge">normalization</text></g><g stroke-linecap="round"><g transform="translate(520.2259242558001 1574.0064130087812) rotate(0 152.63910454561005 -0.9145378250359499)"><path d="M0.75 0.52 C51.86 0.48, 255.04 -0.26, 305.6 -0.8 M-0.32 -0.25 C50.83 -0.55, 254.67 -2.09, 305.25 -2.35" stroke="#000000" stroke-width="1" fill="none"></path></g><g transform="translate(520.2259242558001 1574.0064130087812) rotate(0 152.63910454561005 -0.9145378250359499)"><path d="M277.99 10 C284.87 5.16, 287.63 5.32, 305.5 -2.7 M277.58 8.85 C282.3 5.48, 289.48 3.21, 305.69 -3.28" stroke="#000000" stroke-width="1" fill="none"></path></g><g transform="translate(520.2259242558001 1574.0064130087812) rotate(0 152.63910454561005 -0.9145378250359499)"><path d="M277.86 -10.52 C284.67 -11.07, 287.46 -6.61, 305.5 -2.7 M277.45 -11.67 C282.05 -10.6, 289.26 -8.43, 305.69 -3.28" stroke="#000000" stroke-width="1" fill="none"></path></g></g><mask></mask><g transform="translate(2051.8665492558002 1506.6236005087812) rotate(0 147.65625 21.600000000000364)"><text x="147.65625" y="0" font-family="Cascadia, Segoe UI Emoji" font-size="36px" fill="#000000" text-anchor="middle" style="white-space: pre;" direction="ltr" dominant-baseline="text-before-edge">denomalization</text></g><g stroke-linecap="round"><g transform="translate(2050.7337367558002 1587.8931317587812) rotate(0 152.1296287386583 -0.6192447415178322)"><path d="M0.24 -0.79 C51.31 -1.15, 254.78 -0.65, 305.36 -0.99 M-1.1 1.41 C49.99 1.24, 253.66 -2.07, 304.88 -2.65" stroke="#000000" stroke-width="1" fill="none"></path></g><g transform="translate(2050.7337367558002 1587.8931317587812) rotate(0 152.1296287386583 -0.6192447415178322)"><path d="M275.52 9.51 C284.14 4.49, 286.94 3.09, 304.81 -2.92 M276.77 8.17 C282.33 4.82, 289.64 3.67, 305.87 -2.43" stroke="#000000" stroke-width="1" fill="none"></path></g><g transform="translate(2050.7337367558002 1587.8931317587812) rotate(0 152.1296287386583 -0.6192447415178322)"><path d="M275.24 -11.01 C284.11 -11.7, 286.97 -8.76, 304.81 -2.92 M276.48 -12.35 C282.01 -11.36, 289.37 -8.17, 305.87 -2.43" stroke="#000000" stroke-width="1" fill="none"></path></g></g><mask></mask><g stroke-linecap="round"><g transform="translate(1822.7259242558002 1053.8989911337812) rotate(0 449.80949669446795 -251.99213164951652)"><path d="M0.07 -0.56 C150.06 -85.05, 751.18 -421.53, 900.97 -505.75 M-1.35 1.76 C148.49 -82.01, 750.22 -419.78, 900.64 -504.17" stroke="#000000" stroke-width="1" fill="none"></path></g></g><mask></mask><g stroke-linecap="round"><g transform="translate(1820.8802211308002 1114.4068036337812) rotate(0 456.74667183645056 -122.33464206345525)"><path d="M-0.7 -0.14 C151.71 -40.71, 761.5 -203.76, 914.19 -244.52 M1.14 -1.27 C153.38 -41.51, 760.71 -202.53, 913.04 -242.89" stroke="#000000" stroke-width="1" fill="none"></path></g></g><mask></mask><g stroke-linecap="round"><g transform="translate(1817.1399867558002 1182.9712567587812) rotate(0 459.8527232419699 -15.054194368085518)"><path d="M-0.92 -0.35 C152.65 -5.06, 767.05 -23.38, 920.63 -27.99 M0.8 -1.58 C154.26 -6.66, 766.42 -25.03, 919.56 -29.76" stroke="#000000" stroke-width="1" fill="none"></path></g></g><mask></mask><g stroke-linecap="round"><g transform="translate(1815.5091273808002 1219.1333661337812) rotate(0 465.97652615164384 104.84645027158876)"><path d="M0.21 -0.48 C155.73 34.61, 777.85 175.19, 933.09 210.22 M-1.14 -1.78 C154.27 33.5, 776.56 176.1, 932.42 211.47" stroke="#000000" stroke-width="1" fill="none"></path></g></g><mask></mask></svg>